<svg version="1.1" viewBox="0.0 0.0 150.0 75.28083989501312" fill="none" stroke="none" stroke-linecap="square" stroke-miterlimit="10" xmlns:xlink="http://www.w3.org/1999/xlink" xmlns="http://www.w3.org/2000/svg"><clipPath id="p.0"><path d="m0 0l150.0 0l0 75.28084l-150.0 0l0 -75.28084z" clip-rule="nonzero"/></clipPath><g clip-path="url(#p.0)"><path fill="#000000" fill-opacity="0.0" d="m0 0l150.0 0l0 75.28084l-150.0 0z" fill-rule="evenodd"/><path fill="#000000" fill-opacity="0.0" d="m1.5186002 0.89718115l147.46094 0l0 73.24602l-147.46094 0z" fill-rule="evenodd"/><path stroke="#000000" stroke-width="3.0" stroke-linejoin="round" stroke-linecap="butt" d="m1.5186002 0.89718115l147.46094 0l0 73.24602l-147.46094 0z" fill-rule="evenodd"/><path fill="#000000" fill-opacity="0.0" d="m0.008267454 45.157974l148.96861 0l0 22.360817l-148.96861 0z" fill-rule="evenodd"/><path fill="#000000" d="m33.8074 59.117973q-0.203125 0 -0.34375 -0.140625q-0.140625 -0.140625 -0.140625 -0.34375l0 -6.3125q0 -0.21875 0.140625 -0.34375q0.140625 -0.140625 0.34375 -0.140625l1.859375 0q0.703125 0 1.234375 0.3125q0.546875 0.296875 0.84375 0.84375q0.3125 0.546875 0.3125 1.25q0 0.6875 -0.3125 1.21875q-0.296875 0.53125 -0.84375 0.828125q-0.53125 0.296875 -1.234375 0.296875l-1.375 0l0 2.046875q0 0.203125 -0.140625 0.34375q-0.140625 0.140625 -0.34375 0.140625zm0.484375 -3.421875l1.375 0q0.4375 0 0.75 -0.1875q0.328125 -0.1875 0.515625 -0.515625q0.1875 -0.328125 0.1875 -0.75q0 -0.4375 -0.1875 -0.78125q-0.1875 -0.34375 -0.515625 -0.53125q-0.3125 -0.203125 -0.75 -0.203125l-1.375 0l0 2.96875zm5.3270416 3.421875q-0.203125 0 -0.34375 -0.140625q-0.140625 -0.140625 -0.140625 -0.34375l0 -6.3125q0 -0.21875 0.140625 -0.34375q0.140625 -0.140625 0.34375 -0.140625l1.671875 0q0.703125 0 1.234375 0.296875q0.546875 0.28125 0.84375 0.796875q0.3125 0.515625 0.3125 1.203125q0 0.625 -0.3125 1.125q-0.296875 0.484375 -0.84375 0.765625q-0.53125 0.28125 -1.234375 0.28125l-1.1875 0l0 2.328125q0 0.203125 -0.140625 0.34375q-0.140625 0.140625 -0.34375 0.140625zm3.859375 0q-0.125 0 -0.234375 -0.046875q-0.109375 -0.0625 -0.171875 -0.1875l-1.6875 -2.703125l0.9375 -0.265625l1.53125 2.453125q0.171875 0.28125 0.046875 0.515625q-0.109375 0.234375 -0.421875 0.234375zm-3.375 -3.703125l1.1875 0q0.4375 0 0.75 -0.15625q0.328125 -0.171875 0.515625 -0.46875q0.1875 -0.296875 0.1875 -0.65625q0 -0.421875 -0.1875 -0.734375q-0.1875 -0.3125 -0.515625 -0.484375q-0.3125 -0.1875 -0.75 -0.1875l-1.1875 0l0 2.6875zm8.2859955 3.796875q-0.8125 0 -1.5 -0.265625q-0.671875 -0.28125 -1.171875 -0.78125q-0.484375 -0.5 -0.765625 -1.1875q-0.265625 -0.6875 -0.265625 -1.5q0 -0.828125 0.265625 -1.5q0.28125 -0.6875 0.765625 -1.1875q0.5 -0.5 1.171875 -0.765625q0.6875 -0.28125 1.5 -0.28125q0.828125 0 1.5 0.28125q0.671875 0.265625 1.171875 0.765625q0.5 0.5 0.765625 1.1875q0.265625 0.671875 0.265625 1.5q0 0.8125 -0.265625 1.5q-0.265625 0.6875 -0.765625 1.1875q-0.5 0.5 -1.171875 0.78125q-0.671875 0.265625 -1.5 0.265625zm0 -0.875q0.609375 0 1.109375 -0.21875q0.515625 -0.21875 0.890625 -0.609375q0.375 -0.390625 0.578125 -0.90625q0.203125 -0.53125 0.203125 -1.125q0 -0.609375 -0.203125 -1.125q-0.203125 -0.53125 -0.578125 -0.921875q-0.375 -0.390625 -0.890625 -0.59375q-0.5 -0.21875 -1.109375 -0.21875q-0.609375 0 -1.125 0.21875q-0.5 0.203125 -0.875 0.59375q-0.359375 0.390625 -0.5625 0.921875q-0.203125 0.515625 -0.203125 1.125q0 0.59375 0.203125 1.125q0.203125 0.515625 0.5625 0.90625q0.375 0.390625 0.875 0.609375q0.515625 0.21875 1.125 0.21875zm5.716202 0.78125q-0.203125 0 -0.34375 -0.140625q-0.140625 -0.140625 -0.140625 -0.34375l0 -6.3125q0 -0.21875 0.140625 -0.34375q0.140625 -0.140625 0.34375 -0.140625l1.859375 0q0.703125 0 1.234375 0.3125q0.546875 0.296875 0.84375 0.84375q0.3125 0.546875 0.3125 1.25q0 0.6875 -0.3125 1.21875q-0.296875 0.53125 -0.84375 0.828125q-0.53125 0.296875 -1.234375 0.296875l-1.375 0l0 2.046875q0 0.203125 -0.140625 0.34375q-0.140625 0.140625 -0.34375 0.140625zm0.484375 -3.421875l1.375 0q0.4375 0 0.75 -0.1875q0.328125 -0.1875 0.515625 -0.515625q0.1875 -0.328125 0.1875 -0.75q0 -0.4375 -0.1875 -0.78125q-0.1875 -0.34375 -0.515625 -0.53125q-0.3125 -0.203125 -0.75 -0.203125l-1.375 0l0 2.96875zm5.3270416 3.421875q-0.203125 0 -0.34375 -0.140625q-0.140625 -0.140625 -0.140625 -0.34375l0 -6.3125q0 -0.21875 0.140625 -0.34375q0.140625 -0.140625 0.34375 -0.140625l4.218754 0q0.203125 0 0.328125 0.125q0.140625 0.125 0.140625 0.328125q0 0.203125 -0.140625 0.328125q-0.125 0.109375 -0.328125 0.109375l-3.7343788 0l0 2.265625l2.671875 0q0.21875 0 0.34375 0.125q0.140625 0.125 0.140625 0.328125q0 0.1875 -0.140625 0.3125q-0.125 0.125 -0.34375 0.125l-2.671875 0l0 2.34375l3.7343788 0q0.203125 0 0.328125 0.125q0.140625 0.109375 0.140625 0.3125q0 0.203125 -0.140625 0.328125q-0.125 0.125 -0.328125 0.125l-4.218754 0zm6.5296974 0q-0.203125 0 -0.34375 -0.140625q-0.140625 -0.140625 -0.140625 -0.34375l0 -6.3125q0 -0.21875 0.140625 -0.34375q0.140625 -0.140625 0.34375 -0.140625l1.671875 0q0.703125 0 1.234375 0.296875q0.546875 0.28125 0.84375 0.796875q0.3125 0.515625 0.3125 1.203125q0 0.625 -0.3125 1.125q-0.296875 0.484375 -0.84375 0.765625q-0.53125 0.28125 -1.234375 0.28125l-1.1875 0l0 2.328125q0 0.203125 -0.140625 0.34375q-0.140625 0.140625 -0.34375 0.140625zm3.859375 0q-0.125 0 -0.234375 -0.046875q-0.109375 -0.0625 -0.171875 -0.1875l-1.6875 -2.703125l0.9375 -0.265625l1.53125 2.453125q0.171875 0.28125 0.046875 0.515625q-0.109375 0.234375 -0.421875 0.234375zm-3.375 -3.703125l1.1875 0q0.4375 0 0.75 -0.15625q0.328125 -0.171875 0.515625 -0.46875q0.1875 -0.296875 0.1875 -0.65625q0 -0.421875 -0.1875 -0.734375q-0.1875 -0.3125 -0.515625 -0.484375q-0.3125 -0.1875 -0.75 -0.1875l-1.1875 0l0 2.6875zm7.0828705 3.703125q-0.21875 0 -0.359375 -0.140625q-0.125 -0.140625 -0.125 -0.34375l0 -6.796875l0.96875 0l0 6.796875q0 0.203125 -0.140625 0.34375q-0.140625 0.140625 -0.34375 0.140625zm-2.5 -6.390625q-0.203125 0 -0.328125 -0.125q-0.125 -0.125 -0.125 -0.328125q0 -0.1875 0.125 -0.3125q0.125 -0.125 0.328125 -0.125l4.984375 0q0.203125 0 0.328125 0.125q0.125 0.125 0.125 0.3125q0 0.203125 -0.125 0.328125q-0.125 0.125 -0.328125 0.125l-4.984375 0zm8.681519 6.390625q-0.1875 0 -0.328125 -0.140625q-0.140625 -0.140625 -0.140625 -0.34375l0 -2.171875l-2.484375 -3.875q-0.125 -0.1875 -0.109375 -0.359375q0.03125 -0.1875 0.171875 -0.28125q0.140625 -0.109375 0.3125 -0.109375q0.15625 0 0.25 0.078125q0.09375 0.0625 0.171875 0.1875l2.375 3.765625l-0.375 0l2.40625 -3.796875q0.078125 -0.109375 0.171875 -0.171875q0.109375 -0.0625 0.265625 -0.0625q0.15625 0 0.265625 0.125q0.125 0.109375 0.140625 0.28125q0.015625 0.171875 -0.09375 0.34375l-2.515625 3.875l0 2.171875q0 0.203125 -0.140625 0.34375q-0.125 0.140625 -0.34375 0.140625zm6.3904724 0.09375q-0.59375 0 -1.140625 -0.1875q-0.546875 -0.1875 -0.953125 -0.515625q-0.390625 -0.34375 -0.578125 -0.78125q-0.09375 -0.1875 0 -0.359375q0.109375 -0.171875 0.34375 -0.21875q0.15625 -0.03125 0.3125 0.0625q0.171875 0.078125 0.265625 0.25q0.109375 0.234375 0.359375 0.4375q0.265625 0.1875 0.625 0.3125q0.359375 0.125 0.765625 0.125q0.4375 0 0.8125 -0.140625q0.390625 -0.140625 0.625 -0.40625q0.234375 -0.265625 0.234375 -0.65625q0 -0.5 -0.390625 -0.890625q-0.390625 -0.390625 -1.28125 -0.484375q-1.15625 -0.109375 -1.8125 -0.671875q-0.65625 -0.578125 -0.65625 -1.421875q0 -0.609375 0.34375 -1.03125q0.34375 -0.4375 0.9375 -0.65625q0.59375 -0.234375 1.3125 -0.234375q0.578125 0 1.0 0.171875q0.421875 0.15625 0.734375 0.4375q0.3125 0.265625 0.546875 0.65625q0.140625 0.203125 0.109375 0.390625q-0.015625 0.171875 -0.171875 0.28125q-0.1875 0.109375 -0.390625 0.046875q-0.203125 -0.0625 -0.3125 -0.25q-0.140625 -0.265625 -0.359375 -0.453125q-0.21875 -0.1875 -0.515625 -0.296875q-0.28125 -0.109375 -0.671875 -0.109375q-0.6875 0 -1.15625 0.265625q-0.46875 0.265625 -0.46875 0.8125q0 0.28125 0.140625 0.546875q0.15625 0.25 0.546875 0.4375q0.390625 0.1875 1.109375 0.265625q1.109375 0.109375 1.734375 0.671875q0.625 0.5625 0.625 1.484375q0 0.53125 -0.234375 0.921875q-0.21875 0.390625 -0.59375 0.65625q-0.359375 0.265625 -0.828125 0.40625q-0.46875 0.125 -0.96875 0.125zm4.27713 0.0625q-0.265625 0 -0.453125 -0.1875q-0.1875 -0.203125 -0.1875 -0.46875q0 -0.265625 0.1875 -0.453125q0.1875 -0.1875 0.453125 -0.1875q0.265625 0 0.453125 0.1875q0.1875 0.1875 0.1875 0.453125q0 0.265625 -0.1875 0.46875q-0.1875 0.1875 -0.453125 0.1875zm4.940506 -0.0625q-0.765625 0 -1.421875 -0.28125q-0.65625 -0.28125 -1.15625 -0.796875q-0.484375 -0.515625 -0.765625 -1.1875q-0.265625 -0.6875 -0.265625 -1.46875q0 -0.796875 0.265625 -1.46875q0.28125 -0.671875 0.765625 -1.171875q0.5 -0.515625 1.15625 -0.796875q0.65625 -0.296875 1.421875 -0.296875q0.71875 0 1.234375 0.1875q0.515625 0.1875 1.03125 0.609375q0.078125 0.0625 0.109375 0.125q0.046875 0.046875 0.0625 0.109375q0.015625 0.0625 0.015625 0.15625q0 0.171875 -0.125 0.296875q-0.125 0.109375 -0.3125 0.125q-0.171875 0.015625 -0.328125 -0.125q-0.34375 -0.296875 -0.71875 -0.453125q-0.375 -0.15625 -0.96875 -0.15625q-0.5625 0 -1.046875 0.234375q-0.484375 0.21875 -0.859375 0.609375q-0.359375 0.390625 -0.5625 0.90625q-0.203125 0.515625 -0.203125 1.109375q0 0.59375 0.203125 1.109375q0.203125 0.515625 0.5625 0.90625q0.375 0.390625 0.859375 0.609375q0.484375 0.21875 1.046875 0.21875q0.46875 0 0.890625 -0.15625q0.421875 -0.171875 0.8125 -0.453125q0.171875 -0.125 0.328125 -0.109375q0.171875 0.015625 0.28125 0.140625q0.109375 0.109375 0.109375 0.3125q0 0.09375 -0.03125 0.1875q-0.03125 0.078125 -0.109375 0.15625q-0.5 0.40625 -1.078125 0.609375q-0.578125 0.203125 -1.203125 0.203125zm7.3417053 0q-0.8125 0 -1.5 -0.265625q-0.671875 -0.28125 -1.171875 -0.78125q-0.484375 -0.5 -0.765625 -1.1875q-0.265625 -0.6875 -0.265625 -1.5q0 -0.828125 0.265625 -1.5q0.28125 -0.6875 0.765625 -1.1875q0.5 -0.5 1.171875 -0.765625q0.6875 -0.28125 1.5 -0.28125q0.828125 0 1.5 0.28125q0.671875 0.265625 1.171875 0.765625q0.5 0.5 0.765625 1.1875q0.265625 0.671875 0.265625 1.5q0 0.8125 -0.265625 1.5q-0.265625 0.6875 -0.765625 1.1875q-0.5 0.5 -1.171875 0.78125q-0.671875 0.265625 -1.5 0.265625zm0 -0.875q0.609375 0 1.109375 -0.21875q0.515625 -0.21875 0.890625 -0.609375q0.375 -0.390625 0.578125 -0.90625q0.203125 -0.53125 0.203125 -1.125q0 -0.609375 -0.203125 -1.125q-0.203125 -0.53125 -0.578125 -0.921875q-0.375 -0.390625 -0.890625 -0.59375q-0.5 -0.21875 -1.109375 -0.21875q-0.609375 0 -1.125 0.21875q-0.5 0.203125 -0.875 0.59375q-0.359375 0.390625 -0.5625 0.921875q-0.203125 0.515625 -0.203125 1.125q0 0.59375 0.203125 1.125q0.203125 0.515625 0.5625 0.90625q0.375 0.390625 0.875 0.609375q0.515625 0.21875 1.125 0.21875zm5.716202 0.78125q-0.203125 0 -0.34375 -0.140625q-0.140625 -0.140625 -0.140625 -0.34375l0 -6.3125q0 -0.21875 0.140625 -0.34375q0.140625 -0.140625 0.34375 -0.140625q0.28125 0 0.421875 0.25l2.921875 5.859375l-0.296875 0l2.84375 -5.859375q0.15625 -0.25 0.4375 -0.25q0.203125 0 0.34375 0.140625q0.140625 0.125 0.140625 0.34375l0 6.3125q0 0.203125 -0.15625 0.34375q-0.140625 0.140625 -0.328125 0.140625q-0.21875 0 -0.359375 -0.140625q-0.140625 -0.140625 -0.140625 -0.34375l0 -4.96875l0.1875 -0.046875l-2.4375 4.984375q-0.15625 0.234375 -0.421875 0.234375q-0.3125 0 -0.453125 -0.28125l-2.40625 -4.84375l0.1875 -0.046875l0 4.96875q0 0.203125 -0.140625 0.34375q-0.140625 0.140625 -0.34375 0.140625z" fill-rule="nonzero"/><path fill="#000000" fill-opacity="0.0" d="m0.008267454 0.8970165l148.96861 0l0 53.063942l-148.96861 0z" fill-rule="evenodd"/><path fill="#000000" d="m24.668226 30.50514l0 7.812502l2.09375 0.515625l0 0.34375l-7.109375 0l0 -0.34375l2.078125 -0.515625l0 -22.531252l-2.078125 -0.515625l0 -0.359375l6.234375 0q2.15625 0 3.828125 0.59375q1.6875 0.59375 2.828123 1.640625q1.140625 1.03125 1.75 2.453125q0.609375 1.421875 0.609375 3.109375q0 1.703125 -0.609375 3.125q-0.609375 1.421875 -1.75 2.46875q-1.1406231 1.03125 -2.828123 1.625q-1.671875 0.578125 -3.828125 0.578125l-1.21875 0zm0 -0.6875l1.21875 0q2.734375 0 4.21875 -1.65625q1.5 -1.671875 1.5 -5.453125q0 -3.765625 -1.5 -5.421875q-1.484375 -1.671875 -4.21875 -1.671875l-1.21875 0l0 14.203125zm18.892042 -14.90625q2.21875 0 3.84375 0.5q1.640625 0.484375 2.703125 1.3125q1.078125 0.828125 1.59375 1.921875q0.53125 1.09375 0.53125 2.34375q0 1.0 -0.296875 1.78125q-0.296875 0.78125 -0.765625 1.390625q-0.46875 0.59375 -1.09375 1.015625q-0.625 0.421875 -1.25 0.6875q-1.484375 0.65625 -3.359375 0.84375q1.53125 0.171875 2.78125 0.71875q1.0625 0.484375 2.0 1.421875q0.9375 0.9375 1.109375 2.53125l0.703125 6.062502q0.0625 0.65625 0.296875 0.9375q0.25 0.28125 0.5625 0.28125q0.171875 0 0.359375 -0.125q0.1875 -0.125 0.375 -0.296875q0.171875 -0.171875 0.3125 -0.453125l0.34375 0.34375q-0.21875 0.453125 -0.59375 0.796875q-0.3125 0.28125 -0.8125 0.515625q-0.5 0.25 -1.203125 0.25q-1.171875 0 -1.921875 -0.671875q-0.734375 -0.671875 -0.84375 -1.578125l-0.6875 -6.062502q-0.140625 -1.171875 -0.453125 -1.984375q-0.3125 -0.828125 -0.859375 -1.34375q-0.53125 -0.515625 -1.359375 -0.75q-0.828125 -0.25 -2.015625 -0.25l-1.390625 0l0 11.265627l2.09375 0.515625l0 0.34375l-7.109375 0l0 -0.34375l2.078125 -0.515625l0 -22.531252l-2.078125 -0.515625l0 -0.359375l6.40625 0zm5.375 6.078125q0 -2.609375 -1.390625 -3.984375q-1.390625 -1.390625 -3.984375 -1.390625l-1.390625 0l0 10.734375l1.390625 0q2.59375 0 3.984375 -1.375q1.390625 -1.390625 1.390625 -3.984375zm12.295334 17.328127l2.09375 0.515625l0 0.34375l-7.109375 0l0 -0.34375l2.078125 -0.515625l0 -22.531252l-2.078125 -0.515625l0 -0.359375l7.109375 0l0 0.359375l-2.09375 0.515625l0 22.531252zm3.301731 -23.046877l0 -0.359375l7.28125 0l0 0.359375l-2.078125 0.515625l5.53125 18.187502l4.859375 -17.843752l-2.25 -0.859375l0 -0.359375l5.1875 0l0 0.359375l-2.25 0.859375l-6.40625 23.562502l-0.515625 0l-7.28125 -23.906252l-2.078125 -0.515625zm27.027878 16.796877l-7.109375 0l-1.734375 5.890625l2.265625 0.875l0 0.34375l-5.203125 0l0 -0.34375l2.25 -0.875l6.765625 -23.562502l0.515625 0l7.28125 23.921877l2.078125 0.515625l0 0.34375l-7.28125 0l0 -0.34375l2.078125 -0.515625l-1.90625 -6.25zm-6.9375 -0.6562519l6.734375 0l-3.46875 -11.46875l-3.265625 11.46875zm21.662933 6.906252l2.078125 0.515625l0 0.34375l-7.09375 0l0 -0.34375l2.078125 -0.515625l0 -22.703127l-3.640625 0q0 1.453125 -0.59375 2.703125q-0.59375 1.25 -1.484375 2.140625l-0.34375 0q0.03125 -0.453125 0.0625 -0.9375q0.03125 -0.40625 0.0625 -0.875q0.046875 -0.46875 0.046875 -0.953125q0 -0.65625 -0.046875 -1.15625q-0.03125 -0.515625 -0.0625 -0.890625q-0.03125 -0.421875 -0.0625 -0.734375l15.0625 0q-0.0625 0.3125 -0.09375 0.734375q-0.046875 0.375 -0.0625 0.890625q-0.015625 0.5 -0.015625 1.15625q0 0.484375 0.015625 0.953125q0.015625 0.46875 0.0625 0.875q0.03125 0.484375 0.09375 0.9375l-0.34375 0q-0.890625 -0.890625 -1.484375 -2.140625q-0.59375 -1.25 -0.59375 -2.703125l-3.640625 0l0 22.703127zm20.623611 0.171875q0 -1.46875 0.578125 -2.703125q0.59375 -1.25 1.5 -2.15625l0.34375 0q-0.0625 0.453125 -0.09375 0.9375q-0.046875 0.421875 -0.0625 0.90625q-0.015625 0.484375 -0.015625 0.9375q0 0.65625 0.015625 1.15625q0.015625 0.5 0.0625 0.875q0.03125 0.421875 0.09375 0.734375l-14.375 0l0 -0.34375l2.078125 -0.515625l0 -22.531252l-2.078125 -0.515625l0 -0.359375l14.03125 0q-0.0625 0.3125 -0.109375 0.734375q-0.03125 0.375 -0.046875 0.890625q-0.015625 0.5 -0.015625 1.15625q0 0.484375 0.015625 0.953125q0.015625 0.46875 0.046875 0.875q0.046875 0.484375 0.109375 0.9375l-0.34375 0q-0.90625 -0.890625 -1.5 -2.140625q-0.578125 -1.25 -0.578125 -2.703125l-6.59375 0l0 10.390625l3.296875 0l1.5625 -3.109375l0.34375 0l0 6.921875l-0.34375 0l-1.5625 -3.109375l-3.296875 0l0 11.781252l6.9375 0z" fill-rule="nonzero"/><path fill="#000000" fill-opacity="0.0" d="m19.889763 46.002625l108.8189 0" fill-rule="evenodd"/><path stroke="#000000" stroke-width="1.0" stroke-linejoin="round" stroke-linecap="butt" d="m19.889763 46.002625l108.8189 0" fill-rule="evenodd"/></g></svg>